<mxfile host="app.diagrams.net" modified="2023-03-14T06:53:32.953Z" agent="5.0 (Windows NT 10.0; Win64; x64) AppleWebKit/537.36 (KHTML, like Gecko) Chrome/111.0.0.0 Safari/537.36" etag="hL7F5JDhXL2A1nE5PvjA" version="21.0.6" type="github">
  <diagram name="第 1 页" id="hAvD06V8Mv2N6wR6TIVn">
    <mxGraphModel dx="574" dy="283" grid="1" gridSize="10" guides="1" tooltips="1" connect="1" arrows="1" fold="1" page="1" pageScale="1" pageWidth="827" pageHeight="1169" math="1" shadow="0">
      <root>
        <mxCell id="0" />
        <mxCell id="1" parent="0" />
        <mxCell id="KVS_gk8oBXAJuaLljpYk-1" value="" style="group" vertex="1" connectable="0" parent="1">
          <mxGeometry x="4.32" y="135.25" width="805.68" height="434.7511111111111" as="geometry" />
        </mxCell>
        <mxCell id="KVS_gk8oBXAJuaLljpYk-2" value="" style="rounded=1;whiteSpace=wrap;html=1;fillColor=#E6E6E6;" vertex="1" parent="KVS_gk8oBXAJuaLljpYk-1">
          <mxGeometry width="805.68" height="232.5" as="geometry" />
        </mxCell>
        <mxCell id="KVS_gk8oBXAJuaLljpYk-3" value="" style="rounded=1;whiteSpace=wrap;html=1;fillColor=#FFE599;dashed=1;dashPattern=8 8;strokeColor=#3333FF;" vertex="1" parent="KVS_gk8oBXAJuaLljpYk-1">
          <mxGeometry x="175.68" y="34.75" width="400" height="180" as="geometry" />
        </mxCell>
        <mxCell id="KVS_gk8oBXAJuaLljpYk-4" value="&lt;font style=&quot;font-size: 14px;&quot;&gt;&amp;nbsp;Input&lt;/font&gt;" style="rounded=1;whiteSpace=wrap;html=1;fillColor=#FFFFFF;strokeColor=#000000;fontColor=#000000;strokeWidth=2;" vertex="1" parent="KVS_gk8oBXAJuaLljpYk-1">
          <mxGeometry x="8.68" y="99.75" width="66.23" height="35" as="geometry" />
        </mxCell>
        <mxCell id="KVS_gk8oBXAJuaLljpYk-5" value="&lt;font style=&quot;font-size: 14px;&quot;&gt;Linear Embedding&lt;/font&gt;" style="whiteSpace=wrap;html=1;fillColor=#D5E8D4;strokeColor=#000000;fontColor=#000000;rounded=1;strokeWidth=2;rotation=-90;" vertex="1" parent="KVS_gk8oBXAJuaLljpYk-1">
          <mxGeometry x="64.09" y="97.25" width="131" height="40" as="geometry" />
        </mxCell>
        <mxCell id="KVS_gk8oBXAJuaLljpYk-6" style="edgeStyle=orthogonalEdgeStyle;rounded=0;orthogonalLoop=1;jettySize=auto;html=1;" edge="1" parent="KVS_gk8oBXAJuaLljpYk-1" source="KVS_gk8oBXAJuaLljpYk-4" target="KVS_gk8oBXAJuaLljpYk-5">
          <mxGeometry relative="1" as="geometry" />
        </mxCell>
        <mxCell id="KVS_gk8oBXAJuaLljpYk-43" style="edgeStyle=orthogonalEdgeStyle;rounded=0;orthogonalLoop=1;jettySize=auto;html=1;" edge="1" parent="KVS_gk8oBXAJuaLljpYk-1">
          <mxGeometry relative="1" as="geometry">
            <mxPoint x="284.68" y="141.25" as="sourcePoint" />
            <mxPoint x="350.68" y="141.25" as="targetPoint" />
          </mxGeometry>
        </mxCell>
        <mxCell id="KVS_gk8oBXAJuaLljpYk-7" value="&lt;span style=&quot;font-size: 14px;&quot;&gt;BPSD&lt;/span&gt;" style="whiteSpace=wrap;html=1;fillColor=#fff2cc;strokeColor=#000000;rounded=1;strokeWidth=2;rotation=0;" vertex="1" parent="KVS_gk8oBXAJuaLljpYk-1">
          <mxGeometry x="227.46" y="52.25" width="57.22" height="130" as="geometry" />
        </mxCell>
        <mxCell id="KVS_gk8oBXAJuaLljpYk-8" style="edgeStyle=orthogonalEdgeStyle;rounded=0;orthogonalLoop=1;jettySize=auto;html=1;" edge="1" parent="KVS_gk8oBXAJuaLljpYk-1" source="KVS_gk8oBXAJuaLljpYk-5" target="KVS_gk8oBXAJuaLljpYk-7">
          <mxGeometry relative="1" as="geometry" />
        </mxCell>
        <mxCell id="KVS_gk8oBXAJuaLljpYk-9" value="&lt;span style=&quot;font-size: 14px;&quot;&gt;TL-STA&lt;/span&gt;" style="whiteSpace=wrap;html=1;fillColor=#9999FF;strokeColor=#000000;fontColor=#000000;rounded=1;strokeWidth=2;rotation=0;" vertex="1" parent="KVS_gk8oBXAJuaLljpYk-1">
          <mxGeometry x="350.68" y="52.25" width="57.22" height="130" as="geometry" />
        </mxCell>
        <mxCell id="KVS_gk8oBXAJuaLljpYk-10" style="edgeStyle=orthogonalEdgeStyle;rounded=0;orthogonalLoop=1;jettySize=auto;html=1;exitX=1;exitY=0.5;exitDx=0;exitDy=0;entryX=0;entryY=0.5;entryDx=0;entryDy=0;" edge="1" parent="KVS_gk8oBXAJuaLljpYk-1">
          <mxGeometry relative="1" as="geometry">
            <mxPoint x="284.68" y="93.25" as="sourcePoint" />
            <mxPoint x="350.68" y="93.25" as="targetPoint" />
          </mxGeometry>
        </mxCell>
        <mxCell id="KVS_gk8oBXAJuaLljpYk-11" value="&lt;span style=&quot;font-size: 14px;&quot;&gt;GT&lt;/span&gt;" style="whiteSpace=wrap;html=1;fillColor=#FFFF99;strokeColor=#000000;fontColor=#000000;rounded=1;strokeWidth=2;rotation=0;" vertex="1" parent="KVS_gk8oBXAJuaLljpYk-1">
          <mxGeometry x="477.68" y="52.25" width="57.22" height="130" as="geometry" />
        </mxCell>
        <mxCell id="KVS_gk8oBXAJuaLljpYk-12" style="edgeStyle=orthogonalEdgeStyle;rounded=0;orthogonalLoop=1;jettySize=auto;html=1;entryX=0;entryY=0.5;entryDx=0;entryDy=0;" edge="1" parent="KVS_gk8oBXAJuaLljpYk-1" source="KVS_gk8oBXAJuaLljpYk-9" target="KVS_gk8oBXAJuaLljpYk-11">
          <mxGeometry relative="1" as="geometry" />
        </mxCell>
        <mxCell id="KVS_gk8oBXAJuaLljpYk-13" value="&lt;span style=&quot;font-size: 14px;&quot;&gt;Global Pooling + Linear&lt;/span&gt;" style="whiteSpace=wrap;html=1;fillColor=#FFFFFF;strokeColor=#000000;fontColor=#000000;rounded=1;strokeWidth=2;rotation=0;" vertex="1" parent="KVS_gk8oBXAJuaLljpYk-1">
          <mxGeometry x="613.0699999999999" y="74.75" width="57.22" height="85" as="geometry" />
        </mxCell>
        <mxCell id="KVS_gk8oBXAJuaLljpYk-14" style="edgeStyle=orthogonalEdgeStyle;rounded=0;orthogonalLoop=1;jettySize=auto;html=1;entryX=0;entryY=0.5;entryDx=0;entryDy=0;" edge="1" parent="KVS_gk8oBXAJuaLljpYk-1" source="KVS_gk8oBXAJuaLljpYk-11" target="KVS_gk8oBXAJuaLljpYk-13">
          <mxGeometry relative="1" as="geometry" />
        </mxCell>
        <mxCell id="KVS_gk8oBXAJuaLljpYk-15" value="&lt;span style=&quot;color: rgb(0, 0, 0); font-family: Helvetica; font-size: 14px; font-style: normal; font-variant-ligatures: normal; font-variant-caps: normal; font-weight: 400; letter-spacing: normal; orphans: 2; text-align: center; text-indent: 0px; text-transform: none; widows: 2; word-spacing: 0px; -webkit-text-stroke-width: 0px; text-decoration-thickness: initial; text-decoration-style: initial; text-decoration-color: initial; float: none; display: inline !important;&quot;&gt;Logits&lt;/span&gt;" style="text;whiteSpace=wrap;html=1;" vertex="1" parent="KVS_gk8oBXAJuaLljpYk-1">
          <mxGeometry x="745.8199999999999" y="101.25" width="44.18" height="30" as="geometry" />
        </mxCell>
        <mxCell id="KVS_gk8oBXAJuaLljpYk-16" value="&lt;font style=&quot;font-size: 11px;&quot;&gt;\( C \times T \times V\)&lt;/font&gt;" style="text;html=1;align=center;verticalAlign=middle;resizable=0;points=[];autosize=1;strokeColor=none;fillColor=none;" vertex="1" parent="KVS_gk8oBXAJuaLljpYk-1">
          <mxGeometry x="55.58999999999997" y="14.751111111111044" width="140" height="30" as="geometry" />
        </mxCell>
        <mxCell id="KVS_gk8oBXAJuaLljpYk-17" value="&lt;font style=&quot;font-size: 14px;&quot;&gt;$$basic \&amp;nbsp; block \times L$$&lt;/font&gt;" style="text;html=1;align=center;verticalAlign=middle;resizable=0;points=[];autosize=1;strokeColor=none;fillColor=none;" vertex="1" parent="KVS_gk8oBXAJuaLljpYk-1">
          <mxGeometry x="417.68" y="184.75111111111107" width="190" height="30" as="geometry" />
        </mxCell>
        <mxCell id="KVS_gk8oBXAJuaLljpYk-18" value="&lt;font style=&quot;font-size: 11px;&quot;&gt;\( C_{out}\)&lt;/font&gt;" style="text;html=1;align=center;verticalAlign=middle;resizable=0;points=[];autosize=1;strokeColor=none;fillColor=none;" vertex="1" parent="KVS_gk8oBXAJuaLljpYk-1">
          <mxGeometry x="601.68" y="37.251111111111044" width="80" height="30" as="geometry" />
        </mxCell>
        <mxCell id="KVS_gk8oBXAJuaLljpYk-19" value="" style="shape=flexArrow;endArrow=classic;html=1;rounded=0;" edge="1" parent="KVS_gk8oBXAJuaLljpYk-1">
          <mxGeometry width="50" height="50" relative="1" as="geometry">
            <mxPoint x="682.68" y="117.25" as="sourcePoint" />
            <mxPoint x="744.8199999999998" y="117.25" as="targetPoint" />
          </mxGeometry>
        </mxCell>
        <mxCell id="KVS_gk8oBXAJuaLljpYk-20" value="" style="group" vertex="1" connectable="0" parent="KVS_gk8oBXAJuaLljpYk-1">
          <mxGeometry x="0.6799999999999997" y="266.75" width="324.68" height="130" as="geometry" />
        </mxCell>
        <mxCell id="KVS_gk8oBXAJuaLljpYk-21" value="" style="whiteSpace=wrap;html=1;fillColor=#fff2cc;strokeColor=#000000;rounded=1;strokeWidth=1;rotation=0;" vertex="1" parent="KVS_gk8oBXAJuaLljpYk-20">
          <mxGeometry width="315.68" height="130" as="geometry" />
        </mxCell>
        <mxCell id="KVS_gk8oBXAJuaLljpYk-22" value="&lt;span style=&quot;font-size: 14px;&quot;&gt;Parts Encoding&lt;/span&gt;" style="rounded=1;whiteSpace=wrap;html=1;fillColor=#FFFFFF;strokeColor=#000000;fontColor=#000000;strokeWidth=2;direction=south;" vertex="1" parent="KVS_gk8oBXAJuaLljpYk-20">
          <mxGeometry x="46.86" y="20" width="64" height="89" as="geometry" />
        </mxCell>
        <mxCell id="KVS_gk8oBXAJuaLljpYk-23" value="&lt;font style=&quot;font-size: 14px;&quot;&gt;MLP+active&lt;/font&gt;" style="rounded=1;whiteSpace=wrap;html=1;fillColor=#FFFFFF;strokeColor=#000000;fontColor=#000000;strokeWidth=2;direction=south;" vertex="1" parent="KVS_gk8oBXAJuaLljpYk-20">
          <mxGeometry x="147.86" y="20" width="83" height="90" as="geometry" />
        </mxCell>
        <mxCell id="KVS_gk8oBXAJuaLljpYk-24" style="edgeStyle=orthogonalEdgeStyle;rounded=0;orthogonalLoop=1;jettySize=auto;html=1;entryX=0.5;entryY=1;entryDx=0;entryDy=0;" edge="1" parent="KVS_gk8oBXAJuaLljpYk-20" source="KVS_gk8oBXAJuaLljpYk-22" target="KVS_gk8oBXAJuaLljpYk-23">
          <mxGeometry relative="1" as="geometry" />
        </mxCell>
        <mxCell id="KVS_gk8oBXAJuaLljpYk-25" value="" style="endArrow=classic;html=1;rounded=0;" edge="1" parent="KVS_gk8oBXAJuaLljpYk-20">
          <mxGeometry width="50" height="50" relative="1" as="geometry">
            <mxPoint x="17.36" y="64.25999999999999" as="sourcePoint" />
            <mxPoint x="46.36" y="64.25999999999999" as="targetPoint" />
          </mxGeometry>
        </mxCell>
        <mxCell id="KVS_gk8oBXAJuaLljpYk-26" value="" style="endArrow=classic;html=1;rounded=0;" edge="1" parent="KVS_gk8oBXAJuaLljpYk-20">
          <mxGeometry width="50" height="50" relative="1" as="geometry">
            <mxPoint x="231.68" y="65.75999999999999" as="sourcePoint" />
            <mxPoint x="291.68" y="65.75999999999999" as="targetPoint" />
          </mxGeometry>
        </mxCell>
        <mxCell id="KVS_gk8oBXAJuaLljpYk-27" value="$$ + \mathcal E$$" style="text;html=1;align=center;verticalAlign=middle;resizable=0;points=[];autosize=1;strokeColor=none;fillColor=none;" vertex="1" parent="KVS_gk8oBXAJuaLljpYk-20">
          <mxGeometry x="204.68" y="40" width="120" height="30" as="geometry" />
        </mxCell>
        <mxCell id="KVS_gk8oBXAJuaLljpYk-28" value="" style="group" vertex="1" connectable="0" parent="KVS_gk8oBXAJuaLljpYk-1">
          <mxGeometry x="335.68" y="266.75" width="470" height="134.00111111111107" as="geometry" />
        </mxCell>
        <mxCell id="KVS_gk8oBXAJuaLljpYk-29" value="" style="rounded=1;whiteSpace=wrap;html=1;fillColor=#9999FF;strokeColor=#000000;" vertex="1" parent="KVS_gk8oBXAJuaLljpYk-28">
          <mxGeometry width="470" height="130" as="geometry" />
        </mxCell>
        <mxCell id="KVS_gk8oBXAJuaLljpYk-30" value="&lt;span style=&quot;font-size: 14px;&quot;&gt;Subactions Splite&lt;/span&gt;" style="whiteSpace=wrap;html=1;fillColor=#CCCCFF;strokeColor=#000000;rounded=1;strokeWidth=2;rotation=0;" vertex="1" parent="KVS_gk8oBXAJuaLljpYk-28">
          <mxGeometry x="76" y="19" width="77.32" height="91" as="geometry" />
        </mxCell>
        <mxCell id="KVS_gk8oBXAJuaLljpYk-31" style="edgeStyle=orthogonalEdgeStyle;rounded=0;orthogonalLoop=1;jettySize=auto;html=1;" edge="1" parent="KVS_gk8oBXAJuaLljpYk-28">
          <mxGeometry relative="1" as="geometry">
            <mxPoint x="467" y="65" as="targetPoint" />
            <mxPoint x="425" y="65" as="sourcePoint" />
          </mxGeometry>
        </mxCell>
        <mxCell id="KVS_gk8oBXAJuaLljpYk-32" value="&lt;span style=&quot;font-size: 14px;&quot;&gt;Self-Attention&lt;/span&gt;" style="whiteSpace=wrap;html=1;fillColor=#FFFFFF;strokeColor=#000000;fontColor=#000000;rounded=1;strokeWidth=2;rotation=0;" vertex="1" parent="KVS_gk8oBXAJuaLljpYk-28">
          <mxGeometry x="368.32" y="20" width="69.68" height="90" as="geometry" />
        </mxCell>
        <mxCell id="KVS_gk8oBXAJuaLljpYk-33" style="edgeStyle=orthogonalEdgeStyle;rounded=0;orthogonalLoop=1;jettySize=auto;html=1;entryX=0;entryY=0.5;entryDx=0;entryDy=0;" edge="1" parent="KVS_gk8oBXAJuaLljpYk-28" source="KVS_gk8oBXAJuaLljpYk-34" target="KVS_gk8oBXAJuaLljpYk-32">
          <mxGeometry relative="1" as="geometry" />
        </mxCell>
        <mxCell id="KVS_gk8oBXAJuaLljpYk-34" value="&lt;span style=&quot;font-size: 14px;&quot;&gt;PE&lt;/span&gt;" style="whiteSpace=wrap;html=1;fillColor=#E5CCFF;strokeColor=#000000;fontColor=#000000;rounded=1;strokeWidth=2;rotation=0;" vertex="1" parent="KVS_gk8oBXAJuaLljpYk-28">
          <mxGeometry x="248.32" y="19" width="69.68" height="91" as="geometry" />
        </mxCell>
        <mxCell id="KVS_gk8oBXAJuaLljpYk-35" style="edgeStyle=orthogonalEdgeStyle;rounded=0;orthogonalLoop=1;jettySize=auto;html=1;" edge="1" parent="KVS_gk8oBXAJuaLljpYk-28" source="KVS_gk8oBXAJuaLljpYk-30" target="KVS_gk8oBXAJuaLljpYk-34">
          <mxGeometry relative="1" as="geometry" />
        </mxCell>
        <mxCell id="KVS_gk8oBXAJuaLljpYk-36" value="" style="endArrow=classic;html=1;rounded=0;entryX=0.179;entryY=0.497;entryDx=0;entryDy=0;entryPerimeter=0;" edge="1" parent="KVS_gk8oBXAJuaLljpYk-28">
          <mxGeometry width="50" height="50" relative="1" as="geometry">
            <mxPoint x="7.639999999999986" y="64.65999999999997" as="sourcePoint" />
            <mxPoint x="72.12999999999988" y="64.6099999999999" as="targetPoint" />
            <Array as="points" />
          </mxGeometry>
        </mxCell>
        <mxCell id="KVS_gk8oBXAJuaLljpYk-37" value="&lt;font style=&quot;font-size: 11px;&quot;&gt;\( C \times T/s \times sV\)&lt;/font&gt;" style="text;html=1;align=center;verticalAlign=middle;resizable=0;points=[];autosize=1;strokeColor=none;fillColor=none;" vertex="1" parent="KVS_gk8oBXAJuaLljpYk-28">
          <mxGeometry x="119.31999999999994" y="40.00111111111107" width="160" height="30" as="geometry" />
        </mxCell>
        <mxCell id="KVS_gk8oBXAJuaLljpYk-38" value="&lt;font style=&quot;font-size: 11px;&quot;&gt;\( C \times T \times V\)&lt;/font&gt;" style="text;html=1;align=center;verticalAlign=middle;resizable=0;points=[];autosize=1;strokeColor=none;fillColor=none;" vertex="1" parent="KVS_gk8oBXAJuaLljpYk-28">
          <mxGeometry x="-30.000000000000064" y="38.00111111111107" width="140" height="30" as="geometry" />
        </mxCell>
        <mxCell id="KVS_gk8oBXAJuaLljpYk-39" value="&lt;font style=&quot;font-size: 14px;&quot; face=&quot;Times New Roman&quot;&gt;(a) Overall architecture&lt;/font&gt;" style="text;html=1;align=center;verticalAlign=middle;resizable=0;points=[];autosize=1;strokeColor=none;fillColor=none;" vertex="1" parent="KVS_gk8oBXAJuaLljpYk-1">
          <mxGeometry x="327.84" y="232.50111111111107" width="150" height="30" as="geometry" />
        </mxCell>
        <mxCell id="KVS_gk8oBXAJuaLljpYk-40" value="&lt;font style=&quot;font-size: 14px;&quot; face=&quot;Times New Roman&quot;&gt;(b) Body Parts Semantic Decomposition&amp;nbsp;&lt;/font&gt;" style="text;html=1;align=center;verticalAlign=middle;resizable=0;points=[];autosize=1;strokeColor=none;fillColor=none;" vertex="1" parent="KVS_gk8oBXAJuaLljpYk-1">
          <mxGeometry x="20.679999999999943" y="404.7511111111111" width="250" height="30" as="geometry" />
        </mxCell>
        <mxCell id="KVS_gk8oBXAJuaLljpYk-41" value="&lt;font style=&quot;font-size: 14px;&quot; face=&quot;Times New Roman&quot;&gt;(c) Temporal-local Sptio-temporal Attention&lt;/font&gt;" style="text;html=1;align=center;verticalAlign=middle;resizable=0;points=[];autosize=1;strokeColor=none;fillColor=none;" vertex="1" parent="KVS_gk8oBXAJuaLljpYk-1">
          <mxGeometry x="442.68" y="404.7511111111111" width="270" height="30" as="geometry" />
        </mxCell>
        <mxCell id="KVS_gk8oBXAJuaLljpYk-42" value="&lt;font style=&quot;font-size: 11px;&quot;&gt;\( X\)&lt;/font&gt;" style="text;html=1;align=center;verticalAlign=middle;resizable=0;points=[];autosize=1;strokeColor=none;fillColor=none;" vertex="1" parent="KVS_gk8oBXAJuaLljpYk-1">
          <mxGeometry x="295.67999999999995" y="67.25111111111104" width="50" height="30" as="geometry" />
        </mxCell>
        <mxCell id="KVS_gk8oBXAJuaLljpYk-44" value="&lt;font style=&quot;font-size: 11px;&quot;&gt;\( S^\mathcal{E}\)&lt;/font&gt;" style="text;html=1;align=center;verticalAlign=middle;resizable=0;points=[];autosize=1;strokeColor=none;fillColor=none;" vertex="1" parent="KVS_gk8oBXAJuaLljpYk-1">
          <mxGeometry x="260.67999999999995" y="114.75111111111104" width="120" height="30" as="geometry" />
        </mxCell>
        <mxCell id="KVS_gk8oBXAJuaLljpYk-45" value="&lt;font style=&quot;font-size: 11px;&quot;&gt;\( X\)&lt;/font&gt;" style="text;html=1;align=center;verticalAlign=middle;resizable=0;points=[];autosize=1;strokeColor=none;fillColor=none;" vertex="1" parent="KVS_gk8oBXAJuaLljpYk-1">
          <mxGeometry x="175.67999999999995" y="87.75111111111104" width="50" height="30" as="geometry" />
        </mxCell>
      </root>
    </mxGraphModel>
  </diagram>
</mxfile>
